<?xml version="1.0" encoding="UTF-8"?>
<svg width="800px" height="800px" viewBox="0 0 24 24" version="1.1" xmlns="http://www.w3.org/2000/svg">
    <g stroke="none" stroke-width="1" fill="none" fill-rule="evenodd">
        <circle stroke="#4051B5" stroke-width="2" cx="12" cy="12" r="10"/>
        <path d="M12,2 C13.8,2 15.5,2.5 17,3.3 C16.9,3.4 16.8,3.5 16.7,3.7 C16.4,4.1 16.2,4.7 16,5.3 C15.8,6 15.6,6.7 15.4,7.4 C15.2,8.1 15,8.8 14.8,9.5 C14.6,10.2 14.4,10.9 14.2,11.6 C14,12.3 13.8,13 13.6,13.7 C13.4,14.4 13.2,15.1 13,15.8 C12.8,16.5 12.6,17.2 12.4,17.9 C12.2,18.6 12,19.3 11.8,20 C11.6,20.7 11.4,21.4 11.2,22 C10.8,22 10.4,22 10,22 C9.6,22 9.2,22 8.8,21.9 C8.6,21.2 8.4,20.5 8.2,19.8 C8,19.1 7.8,18.4 7.6,17.7 C7.4,17 7.2,16.3 7,15.6 C6.8,14.9 6.6,14.2 6.4,13.5 C6.2,12.8 6,12.1 5.8,11.4 C5.6,10.7 5.4,10 5.2,9.3 C5,8.6 4.8,7.9 4.6,7.2 C4.4,6.5 4.2,5.8 4,5.1 C3.8,4.4 3.6,3.7 3.4,3 C4.9,2.4 6.4,2 8,2 C9.3,2 10.7,2.2 12,2.6" stroke="#4051B5" stroke-width="2"/>
        <path d="M2,12 C2,10.2 2.5,8.5 3.3,7 C3.4,7.1 3.5,7.2 3.7,7.3 C4.1,7.6 4.7,7.8 5.3,8 C6,8.2 6.7,8.4 7.4,8.6 C8.1,8.8 8.8,9 9.5,9.2 C10.2,9.4 10.9,9.6 11.6,9.8 C12.3,10 13,10.2 13.7,10.4 C14.4,10.6 15.1,10.8 15.8,11 C16.5,11.2 17.2,11.4 17.9,11.6 C18.6,11.8 19.3,12 20,12.2 C20.7,12.4 21.4,12.6 22,12.8 C22,13.2 22,13.6 22,14 C22,14.4 22,14.8 21.9,15.2 C21.2,15.4 20.5,15.6 19.8,15.8 C19.1,16 18.4,16.2 17.7,16.4 C17,16.6 16.3,16.8 15.6,17 C14.9,17.2 14.2,17.4 13.5,17.6 C12.8,17.8 12.1,18 11.4,18.2 C10.7,18.4 10,18.6 9.3,18.8 C8.6,19 7.9,19.2 7.2,19.4 C6.5,19.6 5.8,19.8 5.1,20 C4.4,20.2 3.7,20.4 3,20.6 C2.4,19.1 2,17.6 2,16 C2,14.7 2.2,13.3 2.6,12" stroke="#4051B5" stroke-width="2"/>
    </g>
</svg> 